<?xml version="1.0" encoding="UTF-8" standalone="no"?>
<!DOCTYPE svg PUBLIC "-//W3C//DTD SVG 1.1//EN" "http://www.w3.org/Graphics/SVG/1.1/DTD/svg11.dtd">
<svg width="100%" height="100%" viewBox="0 0 1489 360" version="1.1" xmlns="http://www.w3.org/2000/svg" xmlns:xlink="http://www.w3.org/1999/xlink" xml:space="preserve" xmlns:serif="http://www.serif.com/" style="fill-rule:evenodd;clip-rule:evenodd;stroke-linejoin:round;stroke-miterlimit:2;">
    <g id="Artboard1" transform="matrix(0.55726,0,0,0.307956,407.915,132.113)">
        <rect x="-732" y="-429" width="2672" height="1169" style="fill:none;"/>
        <g transform="matrix(1.79449,0,0,3.24722,-708.338,-395.924)">
            <circle cx="1059" cy="59" r="34" style="fill:rgb(234,79,79);"/>
        </g>
        <g transform="matrix(1.79449,0,0,3.24722,-2021.91,-1788.98)">
            <path d="M780.781,562.238L763.326,522.658C753.304,499.934 763.617,473.348 786.342,463.326C809.066,453.304 835.652,463.617 845.674,486.342L852.826,502.559C816.687,512.035 794.084,537.412 780.781,562.238ZM918.168,502.482L925.801,486.3C933.208,470.6 948.985,460.56 966.345,460.5C983.704,460.44 999.55,470.371 1007.07,486.02L1038.31,551.085C1040.26,555.138 1044.39,557.68 1048.89,557.586C1053.38,557.492 1057.41,554.78 1059.19,550.648L1086.66,486.732C1096.46,463.914 1122.95,453.35 1145.77,463.157C1165.54,471.652 1176.11,492.668 1172.2,512.97C1116.7,506.115 1090.12,581.951 1043.06,579.465C1002.53,577.324 984.598,518.191 918.168,502.482Z" style="fill:rgb(244,180,58);"/>
        </g>
        <g transform="matrix(1.79449,0,0,3.24722,-2021.91,-1788.98)">
            <path d="M1172.2,512.97C1171.6,516.103 1170.65,519.218 1169.34,522.268L1123.86,628.11C1089.57,631.1 1056.78,633.722 1035,628C1009.01,621.174 1000.16,571.744 974,571C938.833,570 921.028,631.362 883,630C836.743,628.343 838.6,563.959 784.49,570.648L780.781,562.238C794.084,537.412 816.687,512.035 852.826,502.559L874.236,551.108C876.049,555.218 880.093,557.891 884.584,557.948C889.076,558.005 893.187,555.436 895.103,551.374L918.168,502.482C984.598,518.191 1002.53,577.324 1043.06,579.465C1090.12,581.951 1116.7,506.115 1172.2,512.97Z" style="fill:rgb(229,141,69);"/>
        </g>
        <g transform="matrix(1.79449,0,0,3.24722,-2021.91,-1788.98)">
            <path d="M1123.86,628.11L1096.28,692.263C1085.58,681.791 1070.35,672.304 1046,672.756C1027.52,673.099 1012.68,677.875 1001.87,683.099L977.293,631.925C975.377,627.936 971.339,625.406 966.914,625.421C962.49,625.436 958.469,627.995 956.581,631.996L927.076,694.541C918.877,695.083 910.925,695.111 904,693C890.333,688.833 882.975,675.203 869,672C859.069,669.724 843.873,670.659 830.108,674.086L784.49,570.648C838.6,563.959 836.743,628.343 883,630C921.028,631.362 938.833,570 974,571C1000.16,571.744 1009.01,621.174 1035,628C1056.78,633.722 1089.57,631.1 1123.86,628.11Z" style="fill:rgb(235,86,80);"/>
        </g>
        <g transform="matrix(1.79449,0,0,3.24722,-2021.91,-1788.98)">
            <path d="M1096.28,692.263L1092.84,700.268C1085.88,716.478 1070.08,727.121 1052.44,727.49C1034.8,727.859 1018.57,717.885 1010.94,701.98L1001.87,683.099C1012.68,677.875 1027.52,673.099 1046,672.756C1070.35,672.304 1085.58,681.791 1096.28,692.263ZM927.076,694.541L923.699,701.7C916.18,717.638 900.049,727.721 882.428,727.496C864.806,727.272 848.937,716.783 841.826,700.658L830.108,674.086C843.873,670.659 859.069,669.724 869,672C882.975,675.203 890.333,688.833 904,693C910.925,695.111 918.877,695.083 927.076,694.541Z" style="fill:rgb(99,79,133);"/>
        </g>
        <g transform="matrix(2.42078,0,0,4.38052,-2746.65,-4228.27)">
            <path d="M1198.99,1096.85C1180.89,1094.69 1167.81,1083.4 1163.81,1066.46C1162.39,1060.43 1162.75,1048.89 1164.58,1042.19C1167.67,1030.86 1174.7,1021.97 1184.44,1017.06C1194.62,1011.94 1205.64,1010.12 1231.69,1009.27C1231.69,1009.27 1238.28,1009.05 1242.62,1008.91C1243.61,1008.88 1244.54,1008.45 1245.21,1007.72C1245.88,1006.99 1246.22,1006.02 1246.17,1005.03C1246.17,1005.03 1246.17,1005.03 1246.17,1005.03C1245.33,990.043 1236.74,984.277 1216.88,985.387C1206.84,985.945 1198.66,988.035 1190.56,992.109C1187.09,993.855 1184.02,995.383 1183.73,995.5C1183.44,995.617 1182.76,994.605 1182.21,993.25C1181.67,991.895 1179.09,986.395 1176.49,981.035C1173.89,975.672 1171.75,970.902 1171.75,970.434C1171.75,968.34 1180.67,963.172 1188.94,960.473C1199.35,957.086 1209.62,955.613 1223.12,955.586C1238.12,955.555 1245.23,956.961 1255.75,962.051C1266.92,967.449 1275.68,978.301 1278.36,990.035C1278.94,992.555 1279.32,1010.02 1279.53,1043.26C1279.83,1089.79 1279.77,1092.79 1278.53,1093.69C1277.57,1094.4 1273.42,1094.66 1263.16,1094.66C1246.38,1094.66 1246.75,1094.83 1246.75,1087.11C1246.75,1083.86 1246.44,1081.91 1245.93,1081.91C1245.48,1081.91 1243.38,1083.44 1241.25,1085.32C1231.26,1094.12 1214.5,1098.69 1198.99,1096.85ZM1223.12,1067.53C1227.74,1066.36 1234.27,1062.61 1238.13,1058.91C1243.05,1054.2 1245.51,1048.54 1245.88,1041.1C1245.88,1041.1 1245.91,1040.44 1245.95,1039.57C1246.01,1038.44 1245.59,1037.34 1244.79,1036.53C1244,1035.73 1242.9,1035.29 1241.77,1035.34C1238.14,1035.48 1233.52,1035.66 1233.52,1035.66C1208.55,1036.62 1200.77,1039.05 1197.16,1047C1191.94,1058.5 1202.19,1070.06 1216.38,1068.66C1218.44,1068.46 1221.48,1067.95 1223.12,1067.53Z" style="fill-opacity:0.8;"/>
        </g>
        <g transform="matrix(2.42078,0,0,4.38052,-2755.62,-4228.27)">
            <path d="M1696.66,1096.53C1686.25,1095.27 1678.29,1093.21 1669.28,1089.44C1661.5,1086.19 1658.5,1084.05 1658.5,1081.73C1658.5,1079.67 1669.7,1057.88 1671.02,1057.38C1671.63,1057.14 1676.07,1058.84 1680.88,1061.16C1694.13,1067.55 1704.93,1069.69 1717.41,1068.41C1728.47,1067.27 1734.25,1063.02 1734.25,1056.04C1734.25,1048.97 1728.29,1044.86 1713.45,1041.68C1698.18,1038.41 1690,1036.2 1684.25,1033.81C1673.83,1029.47 1665.82,1021.88 1662.2,1012.91C1660.11,1007.74 1659.31,993.961 1660.73,987.5C1665.43,965.965 1685.77,954.707 1717.38,956.152C1728.25,956.648 1736.79,958.082 1745.82,960.922C1754.5,963.656 1762.56,967.629 1763.14,969.453C1763.75,971.383 1753.43,992.34 1751.13,993.852C1749.7,994.785 1748.83,994.582 1742.68,991.867C1738.9,990.203 1732.51,987.988 1728.47,986.953C1722.15,985.328 1719.82,985.098 1711.75,985.301C1701.54,985.555 1698.84,986.438 1695.79,990.539C1693.87,993.117 1693.85,997.781 1695.75,1001.04C1698.39,1005.55 1703.14,1007.47 1723.38,1012.16C1742.05,1016.5 1751.27,1020.73 1757.95,1028.02C1764.69,1035.38 1767.48,1043 1767.54,1054.16C1767.62,1074.01 1755.07,1089.41 1734.62,1094.54C1722.19,1097.66 1710.88,1098.25 1696.66,1096.53Z" style="fill-opacity:0.8;"/>
        </g>
        <g transform="matrix(2.42078,0,0,4.38052,-2750.24,-4228.27)">
            <path d="M1298.08,1093.59C1296.66,1092.56 1296.62,1090.88 1296.43,1026.19C1296.24,965.004 1296.32,959.781 1297.48,958.824C1299.39,957.238 1327.51,957.312 1328.52,958.91C1328.91,959.527 1329.23,964 1329.24,968.848C1329.25,973.695 1329.54,977.66 1329.9,977.66C1330.25,977.66 1332.31,975.281 1334.47,972.375C1338.77,966.59 1344.18,962.098 1349.67,959.746C1357.46,956.41 1371.73,954.848 1377.15,956.738C1377.15,956.738 1377.41,956.829 1377.77,956.951C1378.82,957.318 1379.52,958.319 1379.51,959.436C1379.45,963.555 1379.32,973.612 1379.23,980.746C1379.17,985.116 1375.71,988.681 1371.34,988.868C1369.79,988.934 1368.63,988.984 1368.62,988.984C1368.62,988.984 1368.62,988.984 1368.62,988.984C1353.59,989.633 1345.38,992.716 1339.7,999.836C1336.49,1003.87 1334.71,1007.51 1333.27,1013.07C1332.23,1017.03 1331.98,1023.7 1331.7,1055.1C1331.37,1092.17 1331.36,1092.42 1329.77,1093.54C1327.48,1095.14 1300.26,1095.18 1298.08,1093.59Z" style="fill-opacity:0.8;fill-rule:nonzero;"/>
        </g>
        <g transform="matrix(2.42078,0,0,4.38052,-2755.62,-4228.27)">
            <path d="M1395.25,1093.16C1393.77,1091.68 1393.75,1090.66 1393.75,1025.7C1393.75,1025.7 1393.75,969.533 1393.75,960.861C1393.75,960.16 1394.09,959.503 1394.67,959.102C1395.06,958.831 1395.42,958.578 1395.42,958.578C1396.77,957.629 1399.55,957.41 1410.25,957.41C1427.28,957.41 1426.75,957.094 1426.75,967.203C1426.75,971.305 1427.02,974.66 1427.34,974.66C1427.66,974.66 1428.5,973.688 1429.2,972.5C1431.16,969.191 1439.19,962.09 1443.39,959.965C1452.41,955.395 1468.15,953.738 1478.16,956.309C1487.93,958.82 1497.44,965.777 1501.9,973.691C1503.14,975.875 1504.44,977.66 1504.81,977.66C1505.17,977.66 1506.19,976.238 1507.08,974.504C1510.56,967.676 1520.95,960.098 1531,957.055C1533.29,956.359 1539.13,955.613 1544.12,955.379C1554.73,954.883 1562.29,956.391 1571.25,960.793C1580.93,965.543 1589.19,976.234 1592.43,988.184C1595.14,998.215 1595.5,1005.28 1595.5,1049.34C1595.5,1089.89 1595.43,1092.24 1594.13,1093.42C1592.95,1094.48 1590.72,1094.66 1578.55,1094.66C1567.16,1094.66 1564.02,1094.44 1562.74,1093.54C1561.15,1092.43 1561.14,1092.23 1560.83,1051.35C1560.56,1015.34 1560.36,1009.61 1559.2,1004.84C1556.77,994.859 1550.72,988.387 1542.27,986.723C1534.4,985.176 1527.28,987.434 1521.94,993.156C1518.39,996.977 1517.15,999.078 1515.11,1004.77C1513.42,1009.46 1513.38,1010.17 1513.01,1051.03C1512.64,1091.43 1512.59,1092.56 1511.12,1093.64C1509.89,1094.55 1506.93,1094.71 1494.5,1094.52C1486.18,1094.39 1479.09,1094 1478.75,1093.66C1478.41,1093.32 1477.94,1073.74 1477.73,1050.16C1477.33,1007.93 1477.3,1007.21 1475.6,1002.11C1473.24,995.055 1467.9,989.574 1461.59,987.742C1450.21,984.434 1438.62,989.812 1433.45,1000.81C1430.01,1008.11 1429.62,1013.07 1429.22,1054.39C1429.22,1054.39 1428.93,1084.72 1428.86,1091.79C1428.85,1092.67 1428.3,1093.46 1427.48,1093.78C1427.2,1093.88 1427,1093.96 1427,1093.96C1425.98,1094.34 1418.76,1094.66 1410.95,1094.66C1397.75,1094.66 1396.64,1094.56 1395.25,1093.16Z" style="fill-opacity:0.8;fill-rule:nonzero;"/>
        </g>
        <g transform="matrix(2.42078,0,0,4.38052,-2755.62,-4228.27)">
            <path d="M1613.18,1093.48C1612.12,1092.43 1612,1085.28 1612,1026.02C1612,1026.02 1612,969.895 1612,960.941C1612,960.19 1612.37,959.486 1612.98,959.056C1613.35,958.804 1613.67,958.578 1613.67,958.578C1615.04,957.617 1617.92,957.41 1629.79,957.41C1643.45,957.41 1644.34,957.496 1645.82,958.973C1645.82,958.973 1646.28,959.44 1646.7,959.863C1647.14,960.296 1647.38,960.883 1647.38,961.494C1647.35,969.58 1647.14,1026.27 1647.14,1026.27C1646.93,1088.04 1646.83,1092.08 1645.58,1093.33C1644.39,1094.51 1642.62,1094.66 1629.31,1094.66C1616.72,1094.66 1614.17,1094.47 1613.18,1093.48Z" style="fill-opacity:0.8;fill-rule:nonzero;"/>
        </g>
        <g transform="matrix(2.42078,0,0,4.38052,-2761.01,-4228.27)">
            <path d="M1780.56,1093.85C1779.32,1093.13 1779.25,1087.74 1779.25,997.516C1779.25,997.516 1779.25,906.276 1779.25,902.093C1779.25,902.001 1779.3,901.914 1779.37,901.864C1779.78,901.595 1781.06,900.756 1781.06,900.754C1781.06,900.754 1781.06,900.754 1781.06,900.754C1782.6,899.754 1785.12,899.602 1797.16,899.801C1809.69,900.004 1811.61,900.199 1812.79,901.375C1814.04,902.633 1814.11,904.973 1813.86,938.688C1813.7,960.535 1813.88,974.66 1814.3,974.66C1814.68,974.66 1816.09,973.129 1817.44,971.262C1820.07,967.598 1825.72,963.031 1830.76,960.508C1840.33,955.707 1855.68,954.363 1867.12,957.328C1884.01,961.699 1894.79,973.117 1900.14,992.285C1901.77,998.145 1901.82,999.367 1902.07,1045.06C1902.32,1088.87 1902.25,1091.91 1901.01,1093.28C1899.77,1094.65 1898.76,1094.73 1884.51,1094.51C1874.1,1094.36 1869.04,1094 1868.44,1093.4C1867.79,1092.75 1867.46,1081.93 1867.2,1052.9C1866.84,1011.18 1866.55,1007.23 1863.23,999.523C1861.12,994.625 1855.49,989.301 1851.2,988.145C1840.53,985.27 1827.58,989.426 1822.02,997.512C1815.64,1006.77 1815.16,1010.62 1814.72,1055.52C1814.72,1055.52 1814.38,1090.2 1814.35,1093.07C1814.35,1093.18 1814.28,1093.28 1814.18,1093.32C1813.71,1093.5 1812.5,1093.96 1812.5,1093.96C1809.98,1094.91 1782.23,1094.82 1780.56,1093.85Z" style="fill-opacity:0.8;fill-rule:nonzero;"/>
        </g>
    </g>
</svg>
